<?xml version="1.0" encoding="iso-8859-1"?>
<!-- Generator: Adobe Illustrator 19.0.0, SVG Export Plug-In . SVG Version: 6.00 Build 0)  -->
<svg version="1.1" id="Capa_1" xmlns="http://www.w3.org/2000/svg" xmlns:xlink="http://www.w3.org/1999/xlink" x="0px" y="0px"
	 viewBox="0 0 411.528 411.528" style="enable-background:new 0 0 411.528 411.528;" xml:space="preserve">
<g>
	<g>
		<path d="M404.048,174.075H19.288c-4.138,0-7.498,3.342-7.52,7.48v193.48c0.005,8.303,3.316,16.262,9.2,22.12
			c5.858,5.884,13.817,9.195,22.12,9.2h337.08c8.316,0.001,16.29-3.31,22.16-9.2c5.884-5.858,9.195-13.817,9.2-22.12v-193.48
			C411.506,177.433,408.17,174.097,404.048,174.075z M333.008,189.075l-31.72,43.48h-57.96l31.76-43.44L333.008,189.075z
			 M256.488,189.075l-31.72,43.48h-57.96l31.76-43.48H256.488z M179.968,189.075l-31.72,43.48h-57.96l31.76-43.44L179.968,189.075z
			 M103.488,189.075l-31.76,43.48h-44.92l-0.04-43.48H103.488z M396.488,375.035c0,4.338-1.727,8.498-4.8,11.56
			c-3.06,3.077-7.221,4.804-11.56,4.8h-337c-9.035,0-16.36-7.325-16.36-16.36v-25.12h369.72V375.035z M396.488,335.035H26.808
			v-87.48h369.72L396.488,335.035z M396.488,232.675h-76.64l31.76-43.44h44.92L396.488,232.675z"/>
	</g>
</g>
<g>
	<g>
		<path d="M386.088,50.195l-5.88-17.08c-7.493-21.586-31.006-33.075-52.64-25.72l-299.6,102.8
			c-21.628,7.492-33.127,31.062-25.72,52.72l2.92,8.44c3.129-4.324,8.067-6.977,13.4-7.2l-2.12-6.12
			c-4.707-13.803,2.596-28.82,16.36-33.64l17.44-6l44.24,30.72l-43.56,15h46.08l16.44-5.68l72.32-24.88l144.64-49.88l46.96-16
			C384.576,65.226,388.467,57.427,386.088,50.195z M112.088,143.035l-44.24-30.72l54.76-18.76l44.24,30.72L112.088,143.035z
			 M184.408,118.115l-44.2-30.72l54.76-18.88l44.24,30.72L184.408,118.115z M256.768,93.195l-44.24-30.76l54.76-18.64l44.24,30.72
			L256.768,93.195z M329.088,68.275l-44.24-30.72l39.92-13.76c3.602-1.199,7.313-2.043,11.08-2.52
			c4.425-0.611,8.928-0.326,13.24,0.84c1.959,0.565,3.84,1.371,5.6,2.4c3.851,2.309,7.068,5.539,9.36,9.4
			c0.785,1.291,1.492,2.626,2.12,4l5.36,15.64L329.088,68.275z"/>
	</g>
</g>
<g>
</g>
<g>
</g>
<g>
</g>
<g>
</g>
<g>
</g>
<g>
</g>
<g>
</g>
<g>
</g>
<g>
</g>
<g>
</g>
<g>
</g>
<g>
</g>
<g>
</g>
<g>
</g>
<g>
</g>
</svg>
