<?xml version="1.0" encoding="iso-8859-1"?>
<!-- Generator: Adobe Illustrator 19.0.0, SVG Export Plug-In . SVG Version: 6.00 Build 0)  -->
<svg version="1.1" id="Capa_1" xmlns="http://www.w3.org/2000/svg" xmlns:xlink="http://www.w3.org/1999/xlink" x="0px" y="0px"
	 viewBox="0 0 512 512" style="enable-background:new 0 0 512 512;" xml:space="preserve">
<g>
	<g>
		<path d="M467,90h-53.072C419.051,81.167,422,70.925,422,60c0-33.084-26.916-60-60-60c-24.05,0-46.794,9.328-64.043,26.264
			c-4.684,4.599-8.779,9.613-12.295,14.938C277.736,34.237,267.356,30,256,30c-11.356,0-21.736,4.237-29.663,11.203
			c-3.515-5.325-7.611-10.339-12.295-14.938C196.794,9.328,174.05,0,150,0c-33.084,0-60,26.916-60,60
			c0,10.925,2.949,21.167,8.072,30H45c-24.813,0-45,20.187-45,45v60c0,19.556,12.539,36.239,30,42.43V467c0,24.813,20.187,45,45,45
			h362c24.813,0,45-20.187,45-45V237.43c17.461-6.191,30-22.874,30-42.43v-60C512,110.187,491.813,90,467,90z M211,482H75
			c-8.271,0-15-6.729-15-15v-77h151V482z M211,360H60v-30h151V360z M211,300H60v-60h151V300z M211,210H45c-8.271,0-15-6.729-15-15
			v-60c0-8.271,6.729-15,15-15c9.388,0,160.076,0,166,0V210z M150,90c-16.542,0-30-13.458-30-30s13.458-30,30-30
			c33.636,0,61,26.916,61,60H150z M271,482h-30V120h30V482z M271,90h-30V75c0-8.271,6.729-15,15-15s15,6.729,15,15V90z M362,30
			c16.542,0,30,13.458,30,30s-13.458,30-30,30h-61C301,56.916,328.364,30,362,30z M452,467c0,8.271-6.729,15-15,15H301v-92h151V467z
			 M452,360H301v-30h151V360z M452,300H301v-60h151V300z M482,195c0,8.271-6.729,15-15,15H301v-90c5.916,0,156.616,0,166,0
			c8.271,0,15,6.729,15,15V195z"/>
	</g>
</g>
<g>
</g>
<g>
</g>
<g>
</g>
<g>
</g>
<g>
</g>
<g>
</g>
<g>
</g>
<g>
</g>
<g>
</g>
<g>
</g>
<g>
</g>
<g>
</g>
<g>
</g>
<g>
</g>
<g>
</g>
</svg>
