<?xml version="1.0" encoding="iso-8859-1"?>
<!-- Generator: Adobe Illustrator 19.0.0, SVG Export Plug-In . SVG Version: 6.00 Build 0)  -->
<svg version="1.1" id="Capa_1" xmlns="http://www.w3.org/2000/svg" xmlns:xlink="http://www.w3.org/1999/xlink" x="0px" y="0px"
	 viewBox="0 0 411.483 411.483" style="enable-background:new 0 0 411.483 411.483;" xml:space="preserve">
<g>
	<g>
		<path d="M411.4,205.521c-0.165-2.057-0.75-4.058-1.72-5.88c-0.212-0.437-0.467-0.852-0.76-1.24
			c-4.236-6.465-12.633-8.749-19.56-5.32c-0.522,0.21-1.018,0.478-1.48,0.8l-62.68,36v17.44l70.76-40.8h0.32h0.2v137
			c0.034,0.09,0.034,0.19,0,0.28c-0.09,0.034-0.19,0.034-0.28,0h-0.24l-0.6-0.36l-70.16-40.44v17.32l62.44,36
			c0.939,0.629,1.945,1.152,3,1.56l0.84,0.32c8.117,2.541,16.756-1.98,19.297-10.097c0.464-1.483,0.701-3.029,0.703-4.583v-136.68
			C411.493,206.4,411.466,205.958,411.4,205.521z"/>
	</g>
</g>
<g>
	<g>
		<path d="M97.147,35.682c-33.778-0.074-61.22,27.249-61.293,61.026c-0.035,16.263,6.408,31.871,17.906,43.373
			c11.425,11.46,26.938,17.907,43.12,17.92c33.778,0.074,61.22-27.249,61.293-61.026C158.247,63.197,130.925,35.755,97.147,35.682z
			 M129.52,129.482c-18.027,18.027-47.254,18.027-65.28,0c-8.657-8.657-13.52-20.398-13.52-32.64
			c-0.018-12.246,4.848-23.993,13.52-32.64c18.027-18.027,47.254-18.026,65.28,0C147.547,82.228,147.547,111.455,129.52,129.482z"/>
	</g>
</g>
<g>
	<g>
		<path d="M304.32,185.721c-6.995-7.136-16.567-11.158-26.56-11.16H37.32c-9.895,0.002-19.381,3.946-26.36,10.96
			C3.946,192.501,0.002,201.987,0,211.881v126.56c0.002,9.895,3.946,19.381,10.96,26.36v0.04c6.979,7.014,16.465,10.958,26.36,10.96
			h240.44c9.895-0.002,19.381-3.946,26.36-10.96c7.014-6.979,10.958-16.465,10.96-26.36v-126.6
			C315.078,202.085,311.211,192.684,304.32,185.721z M300.08,338.441c-0.022,12.318-10.002,22.298-22.32,22.32H37.32
			c-12.318-0.022-22.298-10.002-22.32-22.32l-0.04-126.56c0.11-12.271,10.089-22.16,22.36-22.16h240.44
			c12.318,0.022,22.298,10.002,22.32,22.32V338.441z"/>
	</g>
</g>
<g>
	<g>
		<path d="M250.318,86.239c-0.026-0.026-0.052-0.052-0.078-0.078c-9.71-9.753-25.489-9.788-35.242-0.078
			c-0.026,0.026-0.052,0.052-0.078,0.078c-9.753,9.71-9.788,25.489-0.078,35.242c0.026,0.026,0.052,0.052,0.078,0.078
			c9.71,9.753,25.489,9.788,35.242,0.078c0.026-0.026,0.052-0.052,0.078-0.078C259.993,111.771,260.028,95.993,250.318,86.239z
			 M239.84,110.912c-3.919,3.954-10.301,3.983-14.255,0.065c-1.914-1.897-2.989-4.481-2.985-7.175
			c-0.005-2.654,1.046-5.201,2.92-7.08c3.919-3.954,10.301-3.983,14.255-0.065C243.729,100.575,243.759,106.957,239.84,110.912z"/>
	</g>
</g>
<g>
	<g>
		<path d="M268.326,68.075c-9.476-9.474-22.327-14.796-35.726-14.794c-13.402-0.016-26.257,5.31-35.72,14.8
			c-19.728,19.731-19.725,51.718,0.006,71.446c19.731,19.728,51.718,19.725,71.446-0.006S288.057,87.803,268.326,68.075z
			 M232.536,139.218c-19.595-0.035-35.451-15.949-35.416-35.544c0.035-19.595,15.949-35.451,35.544-35.416
			c9.423,0.017,18.452,3.782,25.096,10.464c6.633,6.659,10.346,15.682,10.32,25.08C268.045,123.397,252.131,139.253,232.536,139.218
			z"/>
	</g>
</g>
<g>
	<g>
		<path d="M96.865,65.241c-17.43,0.004-31.557,14.137-31.553,31.567c0.002,8.37,3.328,16.395,9.247,22.313
			c5.913,5.929,13.946,9.255,22.32,9.24c17.43-0.004,31.557-14.137,31.553-31.567S114.295,65.237,96.865,65.241z M108.52,108.487
			c-6.452,6.451-16.912,6.449-23.363-0.003c-3.098-3.099-4.838-7.301-4.837-11.683c-0.004-4.382,1.738-8.585,4.84-11.68
			c6.452-6.451,16.912-6.449,23.363,0.003C114.974,91.577,114.972,102.036,108.52,108.487z"/>
	</g>
</g>
<g>
</g>
<g>
</g>
<g>
</g>
<g>
</g>
<g>
</g>
<g>
</g>
<g>
</g>
<g>
</g>
<g>
</g>
<g>
</g>
<g>
</g>
<g>
</g>
<g>
</g>
<g>
</g>
<g>
</g>
</svg>
