<?xml version="1.0" encoding="iso-8859-1"?>
<!-- Generator: Adobe Illustrator 19.0.0, SVG Export Plug-In . SVG Version: 6.00 Build 0)  -->
<svg version="1.1" id="Capa_1" xmlns="http://www.w3.org/2000/svg" xmlns:xlink="http://www.w3.org/1999/xlink" x="0px" y="0px"
	 viewBox="0 0 411.662 411.662" style="enable-background:new 0 0 411.662 411.662;" xml:space="preserve">
<g>
	<g>
		<path d="M166.511,244.991c-2.938-2.938-7.702-2.938-10.64,0l0.04,0.04l-10.64,10.6c-2.938,2.938-2.938,7.702,0,10.64
			c2.938,2.938,7.702,2.938,10.64,0l10.6-10.64C169.449,252.693,169.449,247.929,166.511,244.991z"/>
	</g>
</g>
<g>
	<g>
		<path d="M399.671,223.231l-105.64-105.48l-105.6-105.6c-16.059-15.988-42.021-15.988-58.08,0l-20.52,20.24
			c-2.914,2.933-2.914,7.667,0,10.6c18.417,18.443,18.417,48.317,0,66.76c-18.448,18.443-48.352,18.443-66.8,0
			c-2.933-2.914-7.667-2.914-10.6,0l-20.44,20.44c-15.988,16.059-15.988,42.021,0,58.08l211.24,211.24
			c16.059,15.988,42.021,15.988,58.08,0l20.52-20.4c2.914-2.933,2.914-7.667,0-10.6c-18.417-18.443-18.417-48.317,0-66.76
			c18.448-18.443,48.352-18.443,66.8,0c2.933,2.914,7.667,2.914,10.6,0l20.44-20.44l0.4-0.44
			C415.68,264.764,415.502,239.12,399.671,223.231z M286.191,373.471l-0.16,0.28l-15.44,15.44c-10.198,10.113-26.642,10.113-36.84,0
			l-211.08-211.44c-10.113-10.198-10.113-26.642,0-36.84l15.44-15.44c22.546,17.642,54.214,17.642,76.76,0l80.32,80.28l-7.4,7.4
			c-2.938,2.938-2.938,7.702,0,10.64c2.938,2.938,7.702,2.938,10.64,0l7.4-7.4l80.36,80.32
			C268.549,319.257,268.549,350.925,286.191,373.471z M389.351,270.271l-0.16,0.32l-0.36,0.32l-15.44,15.44
			c-22.546-17.642-54.214-17.642-76.76,0l-171.16-171.56c17.642-22.546,17.642-54.214,0-76.76l15.44-15.44
			c10.198-10.113,26.642-10.113,36.84,0l100.32,100.32l-5.32,5.32c-2.938,2.938-2.938,7.702,0,10.64
			c2.938,2.938,7.702,2.938,10.64,0l5.32-5.32l100.28,100.2C398.974,243.821,399.133,260.006,389.351,270.271z"/>
	</g>
</g>
<g>
	<g>
		<path d="M251.551,160.071c-2.938-2.938-7.702-2.938-10.64,0l-10.64,10.64c-2.938,2.938-2.938,7.702,0,10.64
			c2.938,2.938,7.702,2.938,10.64,0l10.64-10.64C254.489,167.773,254.489,163.009,251.551,160.071z"/>
	</g>
</g>
<g>
</g>
<g>
</g>
<g>
</g>
<g>
</g>
<g>
</g>
<g>
</g>
<g>
</g>
<g>
</g>
<g>
</g>
<g>
</g>
<g>
</g>
<g>
</g>
<g>
</g>
<g>
</g>
<g>
</g>
</svg>
