<?xml version="1.0" encoding="iso-8859-1"?>
<!-- Generator: Adobe Illustrator 19.0.0, SVG Export Plug-In . SVG Version: 6.00 Build 0)  -->
<svg version="1.1" id="Capa_1" xmlns="http://www.w3.org/2000/svg" xmlns:xlink="http://www.w3.org/1999/xlink" x="0px" y="0px"
	 viewBox="0 0 411.082 411.082" style="enable-background:new 0 0 411.082 411.082;" xml:space="preserve">
<g>
	<g>
		<path d="M31.042,275.659l-2.32-6.44c-1.403-0.055-2.773-0.438-4-1.12c-1.873-1.06-3.295-2.766-4-4.8
			c-0.079-0.367-0.186-0.729-0.32-1.08l-5.08-17.4c-0.654-2.265-0.381-4.697,0.76-6.76c0.697-1.289,1.7-2.388,2.92-3.2l-1.76-6.08
			c-0.849-2.898-1.412-5.872-1.68-8.88c-11.694,4.394-18.062,17.025-14.64,29.04l5.24,18.04c3.549,12.016,15.744,19.281,28,16.68
			C32.879,281.094,31.834,278.416,31.042,275.659z"/>
	</g>
</g>
<g>
	<g>
		<path d="M194.043,356.419l-13.2-45.4h-15.6l14.48,49.8c2.141,7.546-2.011,15.444-9.44,17.96l-1.04,0.28
			c-7.602,1.838-15.314-2.589-17.56-10.08l-16.92-58.2h-15.6l18.28,62.28c4.634,15.589,20.977,24.52,36.6,20
			C189.652,388.426,198.588,372.054,194.043,356.419z"/>
	</g>
</g>
<g>
	<g>
		<path d="M353.962,50.339c-17.52-24.72-36.52-37.28-53.28-32.48c-4.408,1.309-8.404,3.734-11.6,7.04l-237.16,152
			c-9.21,5.45-16.932,13.089-22.48,22.24c-4.676,8.142-5.79,17.851-3.08,26.84l13.64,46.92c2.526,9.056,8.677,16.668,17,21.04
			c9.543,4.693,20.091,6.973,30.72,6.64l281.68,1.32c4.491,1.102,9.191,1.019,13.64-0.24c16.6-4.84,25.96-25.88,27.72-56
			C414.243,185.939,388.923,98.899,353.962,50.339z M87.922,285.619c-8.128,0.307-16.211-1.354-23.56-4.84
			c-4.785-2.483-8.342-6.821-9.84-12l-13.64-46.92c-1.544-5.193-0.878-10.793,1.84-15.48c4.338-6.901,10.28-12.651,17.32-16.76
			l216-138.68c-1.763,7.528-2.847,15.199-3.24,22.92c-3.36,59.76,22,146.84,56.96,195.4c4.465,6.303,9.485,12.193,15,17.6
			L87.922,285.619z M395.923,244.859l0-0.08c-1.36,23.64-7.12,39.68-16.92,42.52c-9.8,2.84-23.28-7.6-37.12-26.84
			c-15.2-21.12-29.92-52.32-40.44-88.6v-0.24v-0.56c-10.44-36-14.76-70.32-13.24-96.32c1.36-23.64,7.12-39.64,16.92-42.52
			c9.8-2.88,23.28,7.6,37.12,26.84C374.923,104.899,399.202,188.459,395.923,244.859z"/>
	</g>
</g>
<g>
</g>
<g>
</g>
<g>
</g>
<g>
</g>
<g>
</g>
<g>
</g>
<g>
</g>
<g>
</g>
<g>
</g>
<g>
</g>
<g>
</g>
<g>
</g>
<g>
</g>
<g>
</g>
<g>
</g>
</svg>
