<?xml version="1.0" encoding="iso-8859-1"?>
<!-- Generator: Adobe Illustrator 19.0.0, SVG Export Plug-In . SVG Version: 6.00 Build 0)  -->
<svg version="1.1" id="Capa_1" xmlns="http://www.w3.org/2000/svg" xmlns:xlink="http://www.w3.org/1999/xlink" x="0px" y="0px"
	 viewBox="0 0 411.736 411.736" style="enable-background:new 0 0 411.736 411.736;" xml:space="preserve">
<g>
	<g>
		<path d="M305.448,82.855c-1.276-23.359-20.607-41.635-44-41.6h-2.96c-7.024-28.962-36.195-46.746-65.157-39.723
			c-19.633,4.761-34.962,20.09-39.723,39.723h-2.96c-23.393-0.035-42.724,18.242-44,41.6c-19.077,4.008-32.742,20.827-32.76,40.32
			c0,0.56,0,1.12,0,1.68c4.438-4.013,9.864-6.774,15.72-8c2.766-11.393,12.764-19.561,24.48-20c4.128-0.152,7.352-3.621,7.2-7.75
			c0-0.003,0-0.007,0-0.01c0,0,0-0.36,0-0.52c0-0.56,0-1.08,0-1.6c0-0.52,0-0.84,0-1.6c0-16.083,13.037-29.12,29.12-29.12
			c1.244,0.003,2.486,0.083,3.72,0.24h0.56c1.01,0.147,2.011,0.347,3,0.6c3.998,1.01,8.059-1.405,9.08-5.4
			c0.099-0.394,0.165-0.795,0.2-1.2c1.949-21.451,20.918-37.26,42.369-35.311c18.751,1.704,33.607,16.56,35.311,35.311
			c0.361,4.072,3.923,7.1,8,6.8c0.473-0.035,0.942-0.115,1.4-0.24c1.119-0.282,2.255-0.495,3.4-0.64
			c1.234-0.157,2.476-0.237,3.72-0.24c16.083,0,29.12,13.037,29.12,29.12c0,0.76,0,1.28,0,1.6l0.12,0.28c0,0.44,0,0.92,0,1.4
			c-0.443,4.107,2.527,7.796,6.634,8.239c0.002,0,0.004,0,0.006,0.001h0.84c11.61,0.56,21.463,8.703,24.2,20
			c5.856,1.227,11.282,3.987,15.72,8c0-0.56,0-1.12,0-1.72C337.793,103.753,324.336,87.02,305.448,82.855z"/>
	</g>
</g>
<g>
	<g>
		<path d="M283.528,203.615c-3.594-3.544-8.296-5.747-13.32-6.24h-1.88h-124.88h-2.04c-4.983,0.495-9.651,2.667-13.24,6.16
			c-3.789,3.612-5.953,8.605-6,13.84c0,0.4,0,1,0,1.8l7.08,72.68c0.485,5.414,2.815,10.498,6.6,14.4
			c3.818,3.878,9.038,6.055,14.48,6.04h111.56c5.24,0.019,10.284-1.988,14.08-5.6l0.48-0.44c3.844-3.914,6.194-9.052,6.64-14.52
			l6.44-72.56c0-0.56,0-1.12,0-1.64C289.489,212.275,287.325,207.255,283.528,203.615z M268.128,290.535
			c-0.13,1.946-0.937,3.786-2.28,5.2l-0.24,0.28c-1.011,0.906-2.322,1.405-3.68,1.4h-111.4c-1.497,0.04-2.944-0.539-4-1.6
			c-1.352-1.428-2.172-3.279-2.32-5.24l-7-72.6c0,0,0,0,0-0.4c0.05-1.209,0.584-2.347,1.48-3.16c1.081-1.076,2.487-1.765,4-1.96
			h126.24c1.51,0.178,2.917,0.853,4,1.92c0.905,0.84,1.437,2.006,1.48,3.24c0,0,0.16,0.16,0.16,0.36L268.128,290.535z"/>
	</g>
</g>
<g>
	<g>
		<path d="M331.728,132.895c-3.586-3.511-8.194-5.794-13.16-6.52c-1.046-0.153-2.102-0.234-3.16-0.24h-219
			c-0.977,0.003-1.952,0.07-2.92,0.2h-0.28c-4.961,0.715-9.568,2.984-13.16,6.48c-3.877,3.664-6.1,8.746-6.16,14.08
			c0.004,0.884,0.071,1.766,0.2,2.64l30.12,211.24c1.81,13.77,8.01,26.591,17.68,36.56c9.077,9.26,21.513,14.454,34.48,14.4h99.2
			c12.967,0.054,25.403-5.14,34.48-14.4c9.583-10.002,15.697-22.819,17.44-36.56l30.16-211.24c0.127-0.861,0.194-1.73,0.2-2.6
			C337.787,141.621,335.58,136.557,331.728,132.895z M322.808,147.455l0-0.04l-30.16,211.24c-1.295,10.504-5.921,20.317-13.2,28
			c-4.283,4.365-9.677,7.477-15.6,9l6.4-74.48c-2.719,0.773-5.533,1.163-8.36,1.16h-6.8l-6.4,74.4h-35.8v-74.4h-15v74.4h-34.8
			l-6.4-74.4h-6.16c-3.065,0.006-6.113-0.453-9.04-1.36l6.44,74.76c-5.923-1.523-11.317-4.635-15.6-9
			c-7.279-7.683-11.905-17.496-13.2-28l-30.16-211.28c-0.011-0.173-0.011-0.347,0-0.52c0.064-1.288,0.64-2.498,1.6-3.36
			c1.303-1.255,2.969-2.067,4.76-2.32h30.56l4.24,49.12c3.224-1.479,6.671-2.412,10.2-2.76c1,0,2,0,3,0h1.6l-4-46.2h57.48v46.2
			h14.96v-46.2h57.32l-4,46.2h1.6c0.92,0,1.84,0,2.72,0c3.628,0.324,7.174,1.271,10.48,2.8l4.4-49.24h30.68
			c1.796,0.265,3.462,1.091,4.76,2.36c0.96,0.862,1.536,2.072,1.6,3.36C322.899,147.084,322.859,147.271,322.808,147.455z"/>
	</g>
</g>
<g>
</g>
<g>
</g>
<g>
</g>
<g>
</g>
<g>
</g>
<g>
</g>
<g>
</g>
<g>
</g>
<g>
</g>
<g>
</g>
<g>
</g>
<g>
</g>
<g>
</g>
<g>
</g>
<g>
</g>
</svg>
