<?xml version="1.0" encoding="iso-8859-1"?>
<!-- Generator: Adobe Illustrator 19.0.0, SVG Export Plug-In . SVG Version: 6.00 Build 0)  -->
<svg version="1.1" id="Capa_1" xmlns="http://www.w3.org/2000/svg" xmlns:xlink="http://www.w3.org/1999/xlink" x="0px" y="0px"
	 viewBox="0 0 411.6 411.6" style="enable-background:new 0 0 411.6 411.6;" xml:space="preserve">
<g>
	<g>
		<path d="M325.285,86.28c-31.657-31.734-74.656-49.541-119.48-49.48c-93.314,0.008-168.953,75.66-168.945,168.974
			s75.66,168.954,168.974,168.946s168.953-75.66,168.945-168.975C374.776,160.936,356.972,117.963,325.285,86.28z M314.645,314.6
			c-60.14,60.111-157.622,60.087-217.732-0.052c-60.111-60.14-60.087-157.622,0.052-217.732
			c60.14-60.111,157.622-60.087,217.732,0.052c28.87,28.884,45.082,68.054,45.068,108.892
			C359.804,246.598,343.566,285.768,314.645,314.6z"/>
	</g>
</g>
<g>
	<g>
		<path d="M351.325,60.28C312.774,21.621,260.401-0.073,205.805,0C92.145-0.003,0.003,92.135,0,205.795
			C-0.003,319.455,92.135,411.597,205.795,411.6c113.66,0.003,205.802-92.135,205.805-205.795
			C411.602,151.223,389.92,98.876,351.325,60.28z M340.685,340.64c-74.567,74.426-195.349,74.312-269.775-0.255
			S-3.402,145.035,71.165,70.61s195.349-74.312,269.775,0.255c35.729,35.797,55.781,84.318,55.745,134.895
			C396.716,256.382,376.561,304.926,340.685,340.64z"/>
	</g>
</g>
<g>
	<g>
		<path d="M327.044,202.039c-0.665-1.167-1.631-2.134-2.799-2.799l-85.84-49.48l-0.6-0.28l-85.28-49.32
			c-3.584-2.055-8.155-0.815-10.209,2.769c-0.648,1.13-0.989,2.409-0.991,3.711v198.24c-0.044,4.153,3.286,7.556,7.439,7.6
			c1.641,0.018,3.243-0.502,4.561-1.48l85.04-49.24l85.88-49.52C327.835,210.196,329.088,205.629,327.044,202.039z M230.885,248.84
			l-74.56,43.08V119.6l74.16,42.84l0.4,0.24l74.6,43.08L230.885,248.84z"/>
	</g>
</g>
<g>
</g>
<g>
</g>
<g>
</g>
<g>
</g>
<g>
</g>
<g>
</g>
<g>
</g>
<g>
</g>
<g>
</g>
<g>
</g>
<g>
</g>
<g>
</g>
<g>
</g>
<g>
</g>
<g>
</g>
</svg>
