<?xml version="1.0" encoding="iso-8859-1"?>
<!-- Generator: Adobe Illustrator 19.0.0, SVG Export Plug-In . SVG Version: 6.00 Build 0)  -->
<svg version="1.1" id="Capa_1" xmlns="http://www.w3.org/2000/svg" xmlns:xlink="http://www.w3.org/1999/xlink" x="0px" y="0px"
	 viewBox="0 0 411.56 411.56" style="enable-background:new 0 0 411.56 411.56;" xml:space="preserve">
<g>
	<g>
		<path d="M384.46,311.458h-72.24c-14.967,0-27.1,12.133-27.1,27.1s12.133,27.1,27.1,27.1h72.24c14.967,0,27.1-12.133,27.1-27.1
			S399.427,311.458,384.46,311.458z M392.98,347.258v-0.16c-2.251,2.276-5.319,3.557-8.52,3.56h-72.24c-6.627,0-12-5.373-12-12
			c0-6.627,5.373-12,12-12h72.24c6.627-0.084,12.067,5.22,12.151,11.847C396.653,341.797,395.34,344.962,392.98,347.258z"/>
	</g>
</g>
<g>
	<g>
		<path d="M379.405,58.952c-17.209-17.157-45.068-17.115-62.225,0.095c-17.12,17.172-17.12,44.958,0,62.131
			c1.013,1.013,2.08,1.973,3.2,2.88v177.44h15v-169.36c8.435,2.575,17.445,2.575,25.88,0v169.36h15.04v-177.44
			c1.12-0.92,2.16-1.88,3.2-2.88C396.657,103.968,396.615,76.109,379.405,58.952z M368.86,110.538
			c-5.435,5.455-12.819,8.521-20.52,8.52h-0.04c-16.038-0.006-29.035-13.013-29.029-29.051
			c0.006-16.038,13.013-29.035,29.051-29.029c16.038,0.006,29.035,13.013,29.029,29.051
			C377.348,97.72,374.295,105.095,368.86,110.538z"/>
	</g>
</g>
<g>
	<g>
		<path d="M99.34,311.458H27.1c-14.967,0-27.1,12.133-27.1,27.1s12.133,27.1,27.1,27.1h72.24c14.967,0,27.1-12.133,27.1-27.1
			S114.307,311.458,99.34,311.458z M107.86,347.258v-0.16c-2.251,2.276-5.319,3.557-8.52,3.56H27.1c-6.627,0-12-5.373-12-12
			c0-6.627,5.373-12,12-12h72.24c6.627-0.084,12.067,5.22,12.151,11.847C111.533,341.797,110.22,344.962,107.86,347.258z"/>
	</g>
</g>
<g>
	<g>
		<path d="M94.42,58.818c-17.22-17.22-45.14-17.22-62.36,0c-17.209,17.157-17.252,45.016-0.095,62.225
			c0.032,0.032,0.063,0.063,0.095,0.095v0.04c1.013,1.013,2.08,1.973,3.2,2.88v177.44H50.3v-169.36
			c8.435,2.575,17.445,2.575,25.88,0v169.36h15.04v-177.44c1.12-0.907,2.187-1.867,3.2-2.88
			C111.64,103.957,111.64,76.038,94.42,58.818z M83.7,110.555c-11.349,11.333-29.736,11.32-41.069-0.029
			c-5.435-5.442-8.488-12.818-8.491-20.509c-0.001-7.72,3.08-15.122,8.56-20.56h-0.04c11.349-11.333,29.736-11.32,41.069,0.029
			S95.049,99.222,83.7,110.555z"/>
	</g>
</g>
<g>
	<g>
		<path d="M273.22,199.338c-42.57,20.791-92.35,20.791-134.92,0c-14.007-6.981-26.616-16.471-37.2-28v20.88
			c9.278,8.052,19.532,14.906,30.52,20.4c46.753,22.992,101.527,22.992,148.28,0c10.988-5.495,21.241-12.348,30.52-20.4v-20.88
			C299.836,182.867,287.228,192.357,273.22,199.338z"/>
	</g>
</g>
<g>
	<g>
		<path d="M310.06,128.178c-1.894-1.895-3.646-3.927-5.24-6.08c-10.745,10.229-23.148,18.56-36.68,24.64
			c-19.608,8.799-40.868,13.312-62.36,13.24c-21.516,0.096-42.804-4.404-62.44-13.2c-13.532-6.081-25.934-14.412-36.68-24.64
			c-1.595,2.153-3.346,4.185-5.24,6.08l-0.28,0.28v8.88c10.822,9.381,22.948,17.142,36,23.04c43.672,19.419,93.528,19.419,137.2,0
			c13.052-5.898,25.178-13.659,36-23.04v-8.92L310.06,128.178z"/>
	</g>
</g>
<g>
</g>
<g>
</g>
<g>
</g>
<g>
</g>
<g>
</g>
<g>
</g>
<g>
</g>
<g>
</g>
<g>
</g>
<g>
</g>
<g>
</g>
<g>
</g>
<g>
</g>
<g>
</g>
<g>
</g>
</svg>
