<?xml version="1.0" encoding="iso-8859-1"?>
<!-- Generator: Adobe Illustrator 19.0.0, SVG Export Plug-In . SVG Version: 6.00 Build 0)  -->
<svg version="1.1" id="Capa_1" xmlns="http://www.w3.org/2000/svg" xmlns:xlink="http://www.w3.org/1999/xlink" x="0px" y="0px"
	 viewBox="0 0 411.72 411.72" style="enable-background:new 0 0 411.72 411.72;" xml:space="preserve">
<g>
	<g>
		<rect x="124.38" y="352.08" width="162.84" height="15.04"/>
	</g>
</g>
<g>
	<g>
		<path d="M108.26,7.32l-0.44-0.52C103.486,2.451,97.6,0.005,91.46,0h-48c-5.954-0.023-11.687,2.256-16,6.36L26.94,6.8
			c-4.349,4.334-6.796,10.22-6.8,16.36v365.2c0.004,6.14,2.451,12.026,6.8,16.36l0.48,0.64c4.316,4.101,10.047,6.379,16,6.36h48
			c12.804-0.022,23.178-10.396,23.2-23.2V23.32C114.639,17.367,112.361,11.636,108.26,7.32z M99.42,388.44
			c-0.105,4.374-3.626,7.895-8,8h-48c-2.029,0.014-3.988-0.744-5.48-2.12l-0.28-0.28c-1.547-1.516-2.413-3.594-2.4-5.76l-0.12-55.84
			h64.28V388.44z M99.42,317.36H35.14v-64.24h64.28V317.36z M99.42,237.92H35.14V173.8h64.28V237.92z M99.42,158.76H35.14V94.48
			h64.28V158.76z M99.46,79.32H35.14v-56c-0.013-2.166,0.853-4.244,2.4-5.76l0.28-0.28c1.492-1.376,3.451-2.134,5.48-2.12h48
			c2.166-0.013,4.244,0.853,5.76,2.4l0.28,0.28c1.376,1.492,2.134,3.451,2.12,5.48V79.32z"/>
	</g>
</g>
<g>
	<g>
		<path d="M384.78,6.96c-4.334-4.349-10.22-6.796-16.36-6.8h-48c-6.126,0.015-11.996,2.461-16.32,6.8
			c-4.349,4.334-6.796,10.22-6.8,16.36v365.2c0.004,6.14,2.451,12.026,6.8,16.36l0.32,0.48c4.316,4.101,10.047,6.379,16,6.36h48
			c6.14-0.004,12.026-2.451,16.36-6.8c4.349-4.334,6.796-10.22,6.8-16.36V23.32C391.576,17.18,389.129,11.294,384.78,6.96z
			 M376.42,388.44c0.013,2.166-0.853,4.244-2.4,5.76c-1.523,1.532-3.6,2.383-5.76,2.36h-48c-2.029,0.014-3.988-0.744-5.48-2.12
			l-0.28-0.28c-1.547-1.516-2.413-3.594-2.4-5.76l0.04-55.96h64.28V388.44z M376.42,317.36h-64.28l0-64.24h64.28V317.36z
			 M376.42,237.92h-64.28l0-64.12h64.28V237.92z M376.42,158.76h-64.28l0-64.28h64.28V158.76z M376.42,79.32h-64.28l0-56
			c-0.023-2.16,0.828-4.237,2.36-5.76c1.523-1.532,3.6-2.383,5.76-2.36h48c2.16-0.023,4.237,0.828,5.76,2.36
			c1.547,1.516,2.413,3.594,2.4,5.76V79.32z"/>
	</g>
</g>
<g>
	<g>
		<rect x="124.38" y="44.76" width="162.84" height="15.04"/>
	</g>
</g>
<g>
	<g>
		<rect x="124.38" y="198.4" width="162.84" height="15.04"/>
	</g>
</g>
<g>
</g>
<g>
</g>
<g>
</g>
<g>
</g>
<g>
</g>
<g>
</g>
<g>
</g>
<g>
</g>
<g>
</g>
<g>
</g>
<g>
</g>
<g>
</g>
<g>
</g>
<g>
</g>
<g>
</g>
</svg>
