<?xml version="1.0" encoding="iso-8859-1"?>
<!-- Generator: Adobe Illustrator 19.0.0, SVG Export Plug-In . SVG Version: 6.00 Build 0)  -->
<svg version="1.1" id="Capa_1" xmlns="http://www.w3.org/2000/svg" xmlns:xlink="http://www.w3.org/1999/xlink" x="0px" y="0px"
	 viewBox="0 0 411.843 411.843" style="enable-background:new 0 0 411.843 411.843;" xml:space="preserve">
<g>
	<g>
		<path d="M213.523,232.926c-9.064-9.08-21.371-14.176-34.2-14.16c-26.731-0.004-48.404,21.661-48.408,48.392
			s21.661,48.404,48.392,48.408c26.731,0.004,48.404-21.661,48.408-48.392C227.717,254.327,222.612,242.006,213.523,232.926z
			 M202.923,290.726v0.04c-13.022,13.034-34.144,13.044-47.178,0.022c-13.034-13.022-13.044-34.144-0.022-47.178
			c13.022-13.034,34.144-13.044,47.178-0.022c6.258,6.252,9.776,14.733,9.782,23.578
			C212.687,276.004,209.176,284.48,202.923,290.726z"/>
	</g>
</g>
<g>
	<g>
		<path d="M400.963,339.566c-5.468-8.7-12.962-15.946-21.84-21.12c-9.42-5.486-20.139-8.345-31.04-8.28
			c-17.097,0.593-33.668,6.061-47.76,15.76l-3.68,2.24c-27.664,21.917-60.927,35.624-96,39.56c31.16,7.04,70.64,1.4,104-3.36
			l12-1.72c32.96-4.52,24,40.2,24,40.36c-0.68,4.075,2.073,7.929,6.148,8.609c1.498,0.25,3.038,0.038,4.412-0.609l55.72-26.72
			c2.951-1.087,4.913-3.895,4.92-7.04C411.831,363.913,408.06,350.854,400.963,339.566z M356.483,391.686
			c0.52-18.76-4.32-49.24-42.12-44l-12,1.72c-7.24,1.04-14.8,2.12-22.44,3.08c9.991-3.654,19.565-8.36,28.56-14.04
			c11.733-8.081,25.523-12.659,39.76-13.2c8.254-0.077,16.377,2.064,23.52,6.2c6.693,3.94,12.344,9.427,16.48,16
			c4.743,7.573,7.596,16.174,8.32,25.08L356.483,391.686z"/>
	</g>
</g>
<g>
	<g>
		<circle cx="179.323" cy="179.486" r="13.84"/>
	</g>
</g>
<g>
	<g>
		<path d="M179.499,43.367c-26.731-0.049-48.439,21.581-48.488,48.312c-0.023,12.836,5.053,25.155,14.112,34.248
			c9.05,9.109,21.359,14.234,34.2,14.24c26.731,0.049,48.439-21.581,48.488-48.312C227.86,65.124,206.23,43.415,179.499,43.367z
			 M202.603,115.641c-13.11,12.946-34.232,12.812-47.177-0.297c-6.189-6.268-9.648-14.729-9.622-23.537
			c0.028-8.875,3.599-17.371,9.92-23.6v-0.04c13.11-12.945,34.232-12.812,47.177,0.298
			C215.846,81.574,215.713,102.696,202.603,115.641z"/>
	</g>
</g>
<g>
	<g>
		<path d="M179.317,0.126C80.281,0.128-0.002,80.414,0,179.45c0.001,47.558,18.894,93.168,52.523,126.797
			c33.595,33.681,79.229,52.583,126.8,52.52c99.036-0.002,179.319-80.288,179.317-179.323S278.353,0.125,179.317,0.126z
			 M295.883,295.38c-64.091,64.22-168.107,64.324-232.327,0.233c-30.891-30.829-48.246-72.684-48.233-116.327
			c-0.087-43.485,17.125-85.219,47.84-116h0.16C127.414-0.933,231.43-1.038,295.65,63.053S359.974,231.16,295.883,295.38z"/>
	</g>
</g>
<g>
	<g>
		<path d="M301.203,145.304c-18.883-18.888-49.503-18.892-68.391-0.009c-9.07,9.068-14.166,21.366-14.169,34.191
			c-0.016,12.829,5.08,25.136,14.16,34.2c18.883,18.888,49.503,18.892,68.391,0.009
			C320.083,194.812,320.087,164.192,301.203,145.304z M290.922,202.721c-12.933,13.122-34.055,13.275-47.177,0.342
			c-6.316-6.225-9.894-14.709-9.942-23.577c-0.057-8.829,3.396-17.318,9.6-23.6c12.933-13.122,34.055-13.275,47.177-0.342
			C303.702,168.477,303.855,189.599,290.922,202.721z"/>
	</g>
</g>
<g>
	<g>
		<path d="M125.812,145.295c-18.883-18.888-49.503-18.892-68.391-0.009c-18.888,18.883-18.892,49.503-0.009,68.391
			c9.068,9.07,21.366,14.166,34.191,14.169c12.829,0.016,25.136-5.08,34.2-14.16C144.691,194.803,144.695,164.183,125.812,145.295z
			 M91.621,212.868c-8.845-0.006-17.326-3.524-23.578-9.782c-6.262-6.256-9.775-14.748-9.76-23.6
			c0.012-18.424,14.958-33.35,33.382-33.338c18.424,0.012,33.35,14.958,33.338,33.382
			C124.991,197.954,110.046,212.88,91.621,212.868z"/>
	</g>
</g>
<g>
</g>
<g>
</g>
<g>
</g>
<g>
</g>
<g>
</g>
<g>
</g>
<g>
</g>
<g>
</g>
<g>
</g>
<g>
</g>
<g>
</g>
<g>
</g>
<g>
</g>
<g>
</g>
<g>
</g>
</svg>
