<?xml version="1.0" encoding="iso-8859-1"?>
<!-- Generator: Adobe Illustrator 19.0.0, SVG Export Plug-In . SVG Version: 6.00 Build 0)  -->
<svg version="1.1" id="Capa_1" xmlns="http://www.w3.org/2000/svg" xmlns:xlink="http://www.w3.org/1999/xlink" x="0px" y="0px"
	 viewBox="0 0 411.484 411.484" style="enable-background:new 0 0 411.484 411.484;" xml:space="preserve">
<g>
	<g>
		<path d="M317.027,109.443c-0.026-0.026-0.053-0.053-0.079-0.079l0.04-0.08c-4.761-4.834-11.255-7.57-18.04-7.6h-1.12
			c-5.353-19.134-16.538-36.122-32-48.6c-1.867-1.52-3.787-2.96-5.76-4.32l-11.52,10.36c15.773,9.888,27.643,24.923,33.6,42.56
			h-152.64c11.031-32.762,41.751-54.82,76.32-54.8h4.32l14.72-13.2c-49.118-9.959-97.585,19.722-111.04,68h-1.12
			c-14.072-0.095-25.556,11.236-25.651,25.308c-0.045,6.673,2.53,13.097,7.171,17.892l0.44,0.48c4.781,4.79,11.272,7.482,18.04,7.48
			h186.24c6.754-0.009,13.229-2.699,18-7.48C326.889,135.466,326.924,119.384,317.027,109.443z M306.428,134.724
			c-1.961,1.967-4.623,3.074-7.4,3.08h-186.32c-2.777-0.006-5.439-1.113-7.4-3.08l-0.32-0.28
			c-3.932-4.277-3.653-10.932,0.624-14.864c1.935-1.779,4.467-2.769,7.096-2.776h186.24c2.777,0.006,5.439,1.113,7.4,3.08
			c4.098,4.087,4.106,10.723,0.019,14.821c-0.006,0.006-0.013,0.013-0.019,0.019H306.428z"/>
	</g>
</g>
<g>
	<g>
		<path d="M284.508,162.804l-4.96,59.16h-147.44l-4.96-59.16h-15.08l5.76,67.28l1.44,17.44l5.68,68c0,0,0,0.32,0,0.44l4,46.04
			c1.017,13.264,6.683,25.744,16,35.24c8.995,9.143,21.294,14.276,34.12,14.24h53.84c12.826,0.036,25.125-5.097,34.12-14.24
			c9.317-9.496,14.983-21.976,16-35.24l4-47.08l6.8-84.56c0,0,0-0.36,0-0.56l5.6-67H284.508z M267.988,360.764
			c-0.688,9.718-4.782,18.882-11.56,25.88c-6.197,6.31-14.676,9.857-23.52,9.84h-54.16c-8.839,0.027-17.316-3.505-23.52-9.8
			c-6.778-6.998-10.872-16.162-11.56-25.88l-3.2-38.16h130.72L267.988,360.764z M277.548,246.284l-5.12,61.28h-133.2l-5.12-61.28
			l-0.76-9.28h144.96L277.548,246.284z"/>
	</g>
</g>
<g>
	<g>
		<path d="M318.628,26.284l-34.08-24.76c-2.761-2.09-6.592-2.024-9.28,0.16l-74.44,67.08c-3.082,2.772-3.332,7.518-0.56,10.6
			c2.772,3.082,7.518,3.332,10.6,0.56l69.92-62.88l29.04,21.24c3.565,2.088,8.147,0.891,10.235-2.674
			C321.853,32.553,321.254,28.66,318.628,26.284z"/>
	</g>
</g>
<g>
</g>
<g>
</g>
<g>
</g>
<g>
</g>
<g>
</g>
<g>
</g>
<g>
</g>
<g>
</g>
<g>
</g>
<g>
</g>
<g>
</g>
<g>
</g>
<g>
</g>
<g>
</g>
<g>
</g>
</svg>
