<?xml version="1.0" encoding="iso-8859-1"?>
<!-- Generator: Adobe Illustrator 19.0.0, SVG Export Plug-In . SVG Version: 6.00 Build 0)  -->
<svg version="1.1" id="Capa_1" xmlns="http://www.w3.org/2000/svg" xmlns:xlink="http://www.w3.org/1999/xlink" x="0px" y="0px"
	 viewBox="0 0 411.457 411.457" style="enable-background:new 0 0 411.457 411.457;" xml:space="preserve">
<g>
	<g>
		<path d="M338.969,359.457h-33.24v-44c-0.11-20.902-17.098-37.782-38-37.76h-24.92v-96l-15.04-5.64v101.64h-44v-101.8l-15.12,5.8
			v96h-24.92c-20.902-0.022-37.89,16.858-38,37.76v44h-33.24c-14.35,0.022-25.978,11.65-26,26c0.022,14.35,11.65,25.978,26,26
			h266.48c14.35-0.022,25.978-11.65,26-26C364.947,371.107,353.319,359.479,338.969,359.457z M120.889,315.457
			c0.044-12.596,10.244-22.796,22.84-22.84h124c12.596,0.044,22.796,10.244,22.84,22.84v44h-169.68V315.457z M338.969,396.417
			H72.489c-6.044-0.022-10.938-4.916-10.96-10.96c0.022-6.044,4.916-10.938,10.96-10.96h266.48
			c6.044,0.022,10.938,4.916,10.96,10.96C349.907,391.501,345.013,396.395,338.969,396.417z"/>
	</g>
</g>
<g>
	<g>
		<path d="M295.317,63.172c-0.861-0.705-1.868-1.208-2.948-1.474l-51.12-14.04l-29.2-44.24c-2.244-3.468-6.875-4.461-10.344-2.216
			c-0.887,0.574-1.643,1.329-2.216,2.216l-29.28,44.24l-50.88,14.04c-4.037,0.876-6.599,4.859-5.723,8.897
			c0.247,1.136,0.754,2.198,1.483,3.103l33.16,41.56l-2.52,52.8c-0.337,4.117,2.727,7.729,6.844,8.066
			c1.113,0.091,2.232-0.068,3.276-0.466l49.88-18.64l49.76,18.68c3.838,1.529,8.188-0.342,9.718-4.179
			c0.397-0.997,0.576-2.068,0.522-3.141l-2.4-53.12l33.04-41.56C298.985,70.5,298.514,65.788,295.317,63.172z M269.769,77.617
			l-23.4,29.68l1.72,37.56c0.148,2.912-2.092,5.393-5.005,5.542c-0.734,0.037-1.469-0.079-2.156-0.342l-35.2-13.24l-35.2,13.24
			c-2.753,1.025-5.817-0.376-6.842-3.13c-0.27-0.725-0.378-1.5-0.318-2.27l1.68-37.36l-23.32-29.6c-2.32-2.56,0-4,2.88-4.68l36-9.92
			l20.68-31.4c1.578-2.452,4.845-3.161,7.297-1.583c0.635,0.408,1.174,0.948,1.583,1.583l20.64,31.32h0.64l35.6,9.8
			C269.809,73.577,271.889,74.937,269.769,77.617z"/>
	</g>
</g>
<g>
</g>
<g>
</g>
<g>
</g>
<g>
</g>
<g>
</g>
<g>
</g>
<g>
</g>
<g>
</g>
<g>
</g>
<g>
</g>
<g>
</g>
<g>
</g>
<g>
</g>
<g>
</g>
<g>
</g>
</svg>
