<?xml version="1.0" encoding="iso-8859-1"?>
<!-- Generator: Adobe Illustrator 19.0.0, SVG Export Plug-In . SVG Version: 6.00 Build 0)  -->
<svg version="1.1" id="Capa_1" xmlns="http://www.w3.org/2000/svg" xmlns:xlink="http://www.w3.org/1999/xlink" x="0px" y="0px"
	 viewBox="0 0 412 412" style="enable-background:new 0 0 412 412;" xml:space="preserve">
<g>
	<g>
		<path d="M190.28,222.84c-0.488-2.386-1.211-4.717-2.16-6.96c-0.961-2.327-2.154-4.552-3.56-6.64
			c-1.437-2.122-3.071-4.104-4.88-5.92c-1.836-1.848-3.815-3.546-5.92-5.08l0.84-0.92c1.9-2.114,3.613-4.389,5.12-6.8l0.24-0.36
			c1.64-2.681,2.867-5.594,3.64-8.64c0.79-3.179,1.18-6.444,1.16-9.72c0.002-2.594-0.266-5.181-0.8-7.72
			c-0.533-2.532-1.338-5-2.4-7.36c-1.077-2.371-2.418-4.612-4-6.68c-1.618-2.084-3.456-3.988-5.48-5.68
			c-2.08-1.767-4.331-3.321-6.72-4.64c-2.438-1.341-4.996-2.453-7.64-3.32c-2.749-0.922-5.573-1.604-8.44-2.04
			c-3.019-0.452-6.067-0.68-9.12-0.68c-3.442,0.001-6.879,0.268-10.28,0.8c-3.083,0.475-6.121,1.211-9.08,2.2h-0.48
			c-2.844,0.995-5.6,2.226-8.24,3.68c-2.431,1.343-4.722,2.924-6.84,4.72c-1.947,1.647-3.753,3.453-5.4,5.4
			c-1.506,1.765-2.846,3.667-4,5.68l-0.2,0.36c-1.109,1.975-1.995,4.068-2.64,6.24c-0.607,2.093-0.916,4.261-0.92,6.44
			c-0.012,2.242,0.395,4.467,1.2,6.56c0.808,2.12,2.079,4.034,3.72,5.6c1.399,1.401,3.038,2.539,4.84,3.36
			c1.864,0.826,3.881,1.248,5.92,1.24c1.342,0.009,2.681-0.112,4-0.36c1.283-0.254,2.531-0.656,3.72-1.2
			c1.123-0.493,2.173-1.139,3.12-1.92l0.48-0.4c1.124-1.025,2.035-2.262,2.68-3.64l0.4-0.92c0.76-1.68,1.52-3.44,2.72-6v-0.32
			c0.455-1.012,0.962-2,1.52-2.96c0.354-0.595,0.741-1.169,1.16-1.72l0.32-0.36c0.35-0.423,0.754-0.8,1.2-1.12
			c0.6-0.415,1.244-0.764,1.92-1.04c0.759-0.313,1.551-0.542,2.36-0.68c1.323-0.209,2.661-0.303,4-0.28
			c1.662-0.035,3.316,0.236,4.88,0.8c1.202,0.475,2.281,1.213,3.16,2.16c1.921,1.963,2.973,4.614,2.92,7.36
			c0.051,1.86-0.276,3.71-0.96,5.44c-0.546,1.269-1.382,2.392-2.44,3.28c-1.358,1.104-2.902,1.958-4.56,2.52
			c-1.795,0.582-3.673,0.866-5.56,0.84h-3.6c-2.402-0.027-4.797,0.269-7.12,0.88c-2.091,0.544-4.059,1.481-5.8,2.76l-0.48,0.36
			c-1.708,1.41-3.075,3.188-4,5.2c-0.936,2.017-1.414,4.216-1.4,6.44c-0.017,2.092,0.363,4.169,1.12,6.12
			c0.705,1.804,1.781,3.44,3.16,4.8l0.4,0.4c1.599,1.449,3.497,2.528,5.56,3.16c1.993,0.623,4.071,0.934,6.16,0.92h2.32l3-0.28
			c2.12-0.2,3.76-0.32,4.88-0.32c2.31-0.059,4.613,0.294,6.8,1.04c1.676,0.618,3.193,1.602,4.44,2.88
			c1.281,1.346,2.251,2.958,2.84,4.72c0.738,2.34,1.076,4.788,1,7.24c0.021,1.673-0.181,3.341-0.6,4.96
			c-0.361,1.333-0.899,2.611-1.6,3.8v0.24c-0.76,1.243-1.674,2.386-2.72,3.4c-0.979,0.945-2.083,1.753-3.28,2.4
			c-1.208,0.623-2.483,1.106-3.8,1.44c-1.307,0.334-2.651,0.496-4,0.48c-2.101,0.05-4.192-0.303-6.16-1.04
			c-1.538-0.6-2.91-1.56-4-2.8c-1.659-1.968-3.094-4.115-4.28-6.4c-1.705-3.201-3.188-6.516-4.44-9.92
			c-0.487-1.394-1.234-2.683-2.2-3.8c-0.859-0.964-1.841-1.811-2.92-2.52c-1.24-0.798-2.587-1.418-4-1.84
			c-1.286-0.469-2.633-0.752-4-0.84c-2.308-0.017-4.599,0.39-6.76,1.2c-2.143,0.819-4.101,2.056-5.76,3.64
			c-1.697,1.515-3.059,3.368-4,5.44v0.4c-0.866,2.203-1.301,4.553-1.28,6.92c0.028,2.099,0.338,4.184,0.92,6.2
			c0.601,2.109,1.363,4.168,2.28,6.16v0.36c1.071,2.286,2.328,4.481,3.76,6.56l0.28,0.44c1.615,2.296,3.407,4.463,5.36,6.48
			c2.162,2.25,4.548,4.274,7.12,6.04c2.704,1.864,5.569,3.484,8.56,4.84c3.29,1.484,6.739,2.585,10.28,3.28
			c3.715,0.73,7.494,1.092,11.28,1.08c3.686,0.011,7.367-0.297,11-0.92c3.301-0.581,6.541-1.465,9.68-2.64h0.52
			c3.185-1.308,6.239-2.915,9.12-4.8c2.867-1.718,5.548-3.729,8-6c2.342-2.183,4.459-4.595,6.32-7.2c1.762-2.507,3.263-5.188,4.48-8
			v-0.4c1.224-2.833,2.162-5.781,2.8-8.8c0.633-3.012,0.955-6.082,0.96-9.16C190.999,227.89,190.758,225.345,190.28,222.84z
			 M177.84,237.32l-0.04,0.04c-0.465,2.209-1.148,4.366-2.04,6.44v0.28c-0.89,1.983-1.975,3.872-3.24,5.64
			c-1.376,1.939-2.944,3.735-4.68,5.36c-1.767,1.657-3.697,3.131-5.76,4.4c-2.221,1.362-4.565,2.514-7,3.44l-0.48,0.2
			c-2.403,0.875-4.879,1.531-7.4,1.96c-3.007,0.575-6.059,0.882-9.12,0.92c-2.967,0.011-5.928-0.271-8.84-0.84
			c-2.603-0.509-5.14-1.314-7.56-2.4c-2.331-1.027-4.566-2.259-6.68-3.68c-1.891-1.285-3.647-2.759-5.24-4.4
			c-1.46-1.547-2.797-3.206-4-4.96l-0.28-0.36c-1.02-1.498-1.916-3.076-2.68-4.72v-0.28c-0.642-1.384-1.176-2.815-1.6-4.28
			c-0.274-0.936-0.422-1.905-0.44-2.88c-0.023-0.776,0.099-1.549,0.36-2.28c0.211-0.466,0.51-0.887,0.88-1.24
			c0.473-0.451,1.031-0.804,1.64-1.04c0.745-0.259,1.531-0.381,2.32-0.36h0.6c0.269,0.085,0.524,0.206,0.76,0.36l0.52,0.4
			c1.444,3.938,3.155,7.774,5.12,11.48c1.63,3.104,3.602,6.015,5.88,8.68c2.365,2.712,5.34,4.823,8.68,6.16
			c3.44,1.344,7.107,2.009,10.8,1.96c2.334-0.004,4.659-0.299,6.92-0.88c2.265-0.599,4.453-1.458,6.52-2.56
			c2.185-1.163,4.204-2.616,6-4.32c1.813-1.74,3.398-3.703,4.72-5.84l0.24-0.4c1.304-2.186,2.3-4.542,2.96-7
			c0.692-2.61,1.042-5.299,1.04-8c0.047-3.819-0.548-7.618-1.76-11.24c-1.183-3.455-3.108-6.609-5.64-9.24
			c-2.536-2.64-5.641-4.665-9.08-5.92c-3.577-1.292-7.357-1.929-11.16-1.88c-1.24,0-3.28,0-6.08,0.4l-2.68,0.2h-1.52
			c-0.809,0.024-1.618-0.07-2.4-0.28c-0.325-0.093-0.626-0.257-0.88-0.48c-0.102-0.134-0.183-0.282-0.24-0.44
			c-0.158-0.504-0.226-1.032-0.2-1.56c-0.082-0.396-0.082-0.804,0-1.2c0.166-0.313,0.398-0.586,0.68-0.8
			c0.454-0.294,0.955-0.51,1.48-0.64c1.309-0.313,2.655-0.447,4-0.4h3.6c3.248,0.021,6.478-0.492,9.56-1.52
			c3.037-1.026,5.868-2.583,8.36-4.6l0.28-0.24c2.594-2.156,4.637-4.898,5.96-8c1.368-3.28,2.048-6.806,2-10.36
			c0.095-5.975-2.211-11.738-6.4-16c-2.161-2.306-4.813-4.097-7.76-5.24c-3.001-1.142-6.189-1.712-9.4-1.68
			c-1.997-0.008-3.99,0.152-5.96,0.48h-0.24c-1.757,0.298-3.475,0.794-5.12,1.48c-1.525,0.652-2.974,1.47-4.32,2.44
			c-1.339,0.946-2.549,2.062-3.6,3.32l-0.32,0.44c-0.769,0.982-1.477,2.011-2.12,3.08c-0.803,1.294-1.537,2.629-2.2,4v0.32
			l-2.76,6.16l-0.28,0.64h-0.2l-0.88,0.28c-0.545,0.052-1.095,0.052-1.64,0c-0.29,0.06-0.59,0.06-0.88,0
			c-0.451-0.216-0.859-0.514-1.2-0.88c-0.314-0.289-0.56-0.644-0.72-1.04c-0.213-0.658-0.308-1.349-0.28-2.04
			c0.006-1.016,0.155-2.025,0.44-3c0.381-1.281,0.904-2.516,1.56-3.68v-0.24c0.766-1.317,1.65-2.562,2.64-3.72
			c1.218-1.444,2.556-2.782,4-4h0.24c1.36-1.427,2.861-2.714,4.48-3.84c2.026-1.107,4.139-2.043,6.32-2.8h0.36
			c2.269-0.755,4.597-1.317,6.96-1.68c2.746-0.52,5.527-0.827,8.32-0.92c2.436-0.008,4.87,0.166,7.28,0.52
			c2.172,0.308,4.313,0.803,6.4,1.48c1.91,0.612,3.758,1.402,5.52,2.36c1.663,0.908,3.23,1.98,4.68,3.2
			c1.345,1.134,2.565,2.408,3.64,3.8c1.025,1.439,1.871,2.997,2.52,4.64c0.691,1.539,1.214,3.149,1.56,4.8
			c0.352,1.697,0.526,3.427,0.52,5.16c0.023,2.236-0.232,4.467-0.76,6.64c-0.453,1.845-1.182,3.611-2.16,5.24v0.32
			c-1.185,1.78-2.523,3.453-4,5c-1.762,1.958-3.66,3.789-5.68,5.48c-2.631,2.226-2.959,6.163-0.733,8.794
			c0.497,0.587,1.098,1.077,1.773,1.446c1.956,1.047,3.84,2.223,5.64,3.52c1.614,1.207,3.126,2.545,4.52,4
			c1.241,1.227,2.365,2.566,3.36,4c0.945,1.383,1.749,2.857,2.4,4.4c0.644,1.546,1.127,3.155,1.44,4.8
			c0.326,1.754,0.487,3.536,0.48,5.32C178.452,233.068,178.251,235.212,177.84,237.32z"/>
	</g>
</g>
<g>
	<g>
		<path d="M297.52,204.8c0.06-6.038-0.475-12.067-1.6-18c-0.879-4.942-2.611-9.693-5.12-14.04c-2.058-3.5-4.664-6.647-7.72-9.32
			c-2.941-2.478-6.358-4.329-10.04-5.44h-0.32c-3.311-0.967-6.696-1.663-10.12-2.08c-3.981-0.494-7.989-0.734-12-0.72h-17.2
			c-3.437,0.022-6.218,2.803-6.24,6.24v88c0.022,3.437,2.803,6.218,6.24,6.24h20h6.04c1.84,0,3.44,0,4.8-0.28
			c1.548-0.156,3.084-0.41,4.6-0.76c1.557-0.351,3.093-0.792,4.6-1.32h0.32c1.521-0.571,2.993-1.267,4.4-2.08
			c1.423-0.845,2.762-1.822,4-2.92c5.537-4.896,9.596-11.241,11.72-18.32C296.469,221.857,297.699,213.343,297.52,204.8z
			 M282.08,226c-1.486,4.785-4.253,9.073-8,12.4c-0.681,0.59-1.418,1.113-2.2,1.56c-0.806,0.456-1.649,0.844-2.52,1.16
			c-1.075,0.357-2.17,0.651-3.28,0.88c-0.989,0.222-1.991,0.382-3,0.48c-1.12,0-2.48,0-4,0.24h-5.6h-13.8v-75.2h11.08
			c3.448-0.028,6.895,0.159,10.32,0.56c2.706,0.333,5.381,0.882,8,1.64h0.24c2.047,0.65,3.939,1.712,5.56,3.12
			c2.044,1.805,3.786,3.925,5.16,6.28c1.743,3.08,2.947,6.435,3.56,9.92c0.933,5.133,1.362,10.344,1.28,15.56
			C285.133,211.839,284.187,219.07,282.08,226z"/>
	</g>
</g>
<g>
	<g>
		<path d="M318.44,172.28c-3.383-9.559-9.152-18.096-16.76-24.8c-2.854-2.502-5.981-4.676-9.32-6.48
			c-3.322-1.746-6.84-3.089-10.48-4c-3.745-0.958-7.555-1.64-11.4-2.04c-4.331-0.459-8.684-0.686-13.04-0.68h-34.2
			c-3.085-0.043-6.159,0.375-9.12,1.24c-5.849,1.582-10.418,6.151-12,12c-0.867,2.961-1.285,6.035-1.24,9.12v94.84
			c-0.007,2.111,0.1,4.221,0.32,6.32c0.189,1.879,0.537,3.739,1.04,5.56c0.555,2.033,1.507,3.936,2.8,5.6
			c1.205,1.581,2.681,2.936,4.36,4l0.36,0.24c2.012,1.145,4.203,1.943,6.48,2.36c2.465,0.474,4.97,0.701,7.48,0.68h34.36
			c3,0,5.96,0,8.84-0.32s5.52-0.52,8-0.92c2.595-0.403,5.161-0.977,7.68-1.72c2.348-0.699,4.646-1.555,6.88-2.56h0.32
			c2.346-1.063,4.607-2.307,6.76-3.72c2.065-1.365,4.03-2.875,5.88-4.52l0.4-0.32c2.432-2.227,4.68-4.649,6.72-7.24
			c2.012-2.517,3.818-5.193,5.4-8c1.547-2.831,2.884-5.773,4-8.8v-0.32c1.162-3.251,2.098-6.579,2.8-9.96
			c0.739-3.567,1.273-7.172,1.6-10.8c0.373-3.893,0.56-7.8,0.56-11.72C324.13,194.064,322.273,182.865,318.44,172.28z M311.12,215.4
			v0.08c-0.301,3.171-0.781,6.323-1.44,9.44c-0.582,2.797-1.357,5.55-2.32,8.24v0.32c-0.894,2.421-1.964,4.774-3.2,7.04
			c-1.247,2.274-2.678,4.441-4.28,6.48c-1.627,2.062-3.42,3.989-5.36,5.76l-0.2,0.2c-1.4,1.222-2.883,2.345-4.44,3.36
			c-1.618,1.064-3.316,2.001-5.08,2.8h-0.36c-1.715,0.768-3.479,1.422-5.28,1.96c-1.993,0.602-4.024,1.07-6.08,1.4
			c-2.12,0.32-4.48,0.6-7.08,0.8c-2.6,0.2-5.08,0.28-8,0.28h-34.2c-1.689,0.028-3.377-0.106-5.04-0.4
			c-0.896-0.151-1.761-0.448-2.56-0.88c-0.394-0.248-0.746-0.559-1.04-0.92c-0.293-0.397-0.51-0.844-0.64-1.32
			c-0.312-1.14-0.526-2.304-0.64-3.48c-0.168-1.661-0.248-3.33-0.24-5v-95.04c-0.117-1.825,0.031-3.657,0.44-5.44
			c0.416-1.833,1.847-3.264,3.68-3.68c1.786-0.479,3.632-0.695,5.48-0.64h34.16c3.914-0.021,7.826,0.166,11.72,0.56
			c3.223,0.326,6.419,0.888,9.56,1.68c2.685,0.703,5.277,1.723,7.72,3.04c2.524,1.37,4.886,3.021,7.04,4.92
			c6.024,5.208,10.633,11.854,13.4,19.32c3.266,9.173,4.825,18.866,4.6,28.6C311.52,208.72,311.413,212.227,311.12,215.4z"/>
	</g>
</g>
<g>
	<g>
		<path d="M368,53.36v0.12H44c-24.301,0-44,19.699-44,44v217.16c0,24.301,19.699,44,44,44h324c24.301,0,44-19.699,44-44V97.36
			C412,73.059,392.301,53.36,368,53.36z M396.84,314.68c-0.066,15.901-12.939,28.774-28.84,28.84H44
			c-15.901-0.066-28.774-12.939-28.84-28.84V97.36C15.226,81.459,28.099,68.586,44,68.52h324
			c15.901,0.066,28.774,12.939,28.84,28.84V314.68z"/>
	</g>
</g>
<g>
	<g>
		<path d="M342.4,87.28H69.72c-9.371,0.014-18.351,3.756-24.96,10.4c-6.644,6.609-10.386,15.589-10.4,24.96v166.68
			c0.044,19.533,15.867,35.356,35.4,35.4h272.68c9.364-0.008,18.342-3.734,24.96-10.36c6.64-6.611,10.381-15.59,10.4-24.96V122.68
			C377.756,103.147,361.933,87.324,342.4,87.28z M362.8,289.36c0.011,5.402-2.135,10.585-5.96,14.4
			c-3.817,3.822-8.999,5.966-14.4,5.96H69.72c-11.226-0.044-20.316-9.134-20.36-20.36V122.68c0.022-11.235,9.125-20.338,20.36-20.36
			h272.72c11.226,0.044,20.316,9.134,20.36,20.36V289.36z"/>
	</g>
</g>
<g>
</g>
<g>
</g>
<g>
</g>
<g>
</g>
<g>
</g>
<g>
</g>
<g>
</g>
<g>
</g>
<g>
</g>
<g>
</g>
<g>
</g>
<g>
</g>
<g>
</g>
<g>
</g>
<g>
</g>
</svg>
