<?xml version="1.0" encoding="iso-8859-1"?>
<!-- Generator: Adobe Illustrator 19.0.0, SVG Export Plug-In . SVG Version: 6.00 Build 0)  -->
<svg version="1.1" id="Capa_1" xmlns="http://www.w3.org/2000/svg" xmlns:xlink="http://www.w3.org/1999/xlink" x="0px" y="0px"
	 viewBox="0 0 411.44 411.44" style="enable-background:new 0 0 411.44 411.44;" xml:space="preserve">
<g>
	<g>
		<path d="M283.84,99.594l1-0.2c0.433-0.112,0.887-0.112,1.32,0c0.406,0.104,0.777,0.311,1.08,0.6l79.36,73.04h22.12l-91.36-84
			c-4.479-4.157-10.803-5.674-16.68-4l-25.84,5.76c-9.411,2.077-15.357,11.389-13.28,20.8c2.077,9.411,11.389,15.357,20.8,13.28
			l18.12-4l56.68,52h22.12l-71.6-65.76c-1.799-1.656-4.293-2.328-6.68-1.8l-21.96,4.88c-1.348,0.298-2.682-0.552-2.98-1.9
			s0.552-2.682,1.9-2.98l0,0.04L283.84,99.594z"/>
	</g>
</g>
<g>
	<g>
		<path d="M368.12,223.594l-0.08-0.04c-3.429-3.453-8.093-5.397-12.96-5.4H56.36c-4.867,0.003-9.531,1.947-12.96,5.4
			c-3.453,3.429-5.397,8.093-5.4,12.96v36.88c0.003,4.867,1.947,9.531,5.4,12.96c3.429,3.453,8.093,5.397,12.96,5.4h95.2
			c2.924,0.001,5.58-1.702,6.8-4.36c4.353-9.881,11.256-18.426,20-24.76c16.281-11.728,38.239-11.728,54.52,0
			c8.646,6.119,15.541,14.393,20,24c1.079,2.98,3.911,4.964,7.08,4.96h95.2c4.867-0.003,9.531-1.947,12.96-5.4
			c3.453-3.429,5.397-8.093,5.4-12.96v-36.68C373.517,231.688,371.573,227.023,368.12,223.594z M357.48,275.794
			c-0.63,0.617-1.478,0.962-2.36,0.96h-90.6c-5.422-10.457-13.233-19.488-22.8-26.36c-21.397-15.4-50.243-15.4-71.64,0
			c-9.63,6.865-17.497,15.911-22.96,26.4H56.36c-0.882,0.002-1.73-0.343-2.36-0.96c-0.617-0.63-0.962-1.478-0.96-2.36v-36.92
			c-0.002-0.882,0.343-1.73,0.96-2.36c0.63-0.617,1.478-0.962,2.36-0.96h298.72c0.882-0.002,1.73,0.343,2.36,0.96
			c0.617,0.63,0.962,1.478,0.96,2.36l0.04,36.88C358.442,274.317,358.097,275.164,357.48,275.794z"/>
	</g>
</g>
<g>
	<g>
		<path d="M405.08,189.314l0.04-0.04c-4.072-4.105-9.618-6.41-15.4-6.4h-368C9.733,182.896,0.022,192.608,0,204.594v100.8
			c-0.003,5.75,2.285,11.263,6.36,15.32c4.066,4.084,9.596,6.374,15.36,6.36H163.6c3.788-0.012,6.977-2.84,7.44-6.6
			c1.209-11.934,5.725-23.293,13.04-32.8c5.078-6.963,13.032-11.256,21.64-11.68c8.586,0.426,16.522,4.703,21.6,11.64
			c7.284,9.448,11.799,20.735,13.04,32.6c0.351,3.87,3.594,6.835,7.48,6.84h141.88c11.987-0.022,21.698-9.734,21.72-21.72v-100.76
			C411.428,198.86,409.141,193.364,405.08,189.314z M389.841,312.074c-0.04,0-0.08,0.001-0.121,0H254.2
			c-2.265-12.374-7.525-24.006-15.32-33.88c-7.867-10.472-20.068-16.801-33.16-17.2c-13.085,0.39-25.285,6.703-33.16,17.16
			c-7.795,9.874-13.055,21.506-15.32,33.88H21.72c-1.764,0.004-3.46-0.685-4.72-1.92c-1.235-1.26-1.924-2.956-1.92-4.72v-100.8
			c0.022-3.665,2.975-6.636,6.64-6.68h368c1.766-0.013,3.465,0.678,4.72,1.92c1.257,1.249,1.963,2.948,1.96,4.72l0.08,100.72
			C396.524,308.986,393.552,312.03,389.841,312.074z"/>
	</g>
</g>
<g>
	<g>
		<path d="M156.68,90.874l-25.84-5.76c-5.877-1.674-12.201-0.157-16.68,4l-91.36,84h22.12l79.28-73.2
			c0.303-0.289,0.674-0.496,1.08-0.6c0.433-0.112,0.887-0.112,1.32,0l1,0.2l25.88,5.76c1.339,0.29,2.189,1.61,1.899,2.949
			c-0.141,0.65-0.537,1.216-1.099,1.571v-0.12c-0.561,0.349-1.236,0.464-1.88,0.32l-21.96-4.88c-2.387-0.528-4.881,0.144-6.68,1.8
			l-71.52,66.04h22.12l56.68-52l18.12,4c9.411,2.077,18.723-3.869,20.8-13.28C172.037,102.263,166.091,92.951,156.68,90.874z"/>
	</g>
</g>
<g>
</g>
<g>
</g>
<g>
</g>
<g>
</g>
<g>
</g>
<g>
</g>
<g>
</g>
<g>
</g>
<g>
</g>
<g>
</g>
<g>
</g>
<g>
</g>
<g>
</g>
<g>
</g>
<g>
</g>
</svg>
